<svg version="1.1" viewBox="0.0 0.0 1828.0 656.0" fill="none" stroke="none" stroke-linecap="square" stroke-miterlimit="10" xmlns:xlink="http://www.w3.org/1999/xlink" xmlns="http://www.w3.org/2000/svg"><clipPath id="p.0"><path d="m0 0l1828.0 0l0 656.0l-1828.0 0l0 -656.0z" clip-rule="nonzero"/></clipPath><g clip-path="url(#p.0)"><path fill="#000000" fill-opacity="0.0" d="m0 0l1828.0 0l0 656.0l-1828.0 0z" fill-rule="evenodd"/><path fill="#000000" d="m0.015748031 54.476868l0 0c0 -30.078045 24.383074 -54.46112 54.46112 -54.46112l1717.0935 0c14.44397 0 28.296387 5.7378516 38.509766 15.951293c10.213501 10.213442 15.951294 24.065842 15.951294 38.509827l0 547.07776c0 30.078064 -24.383057 54.46112 -54.46106 54.46112l-1717.0935 0c-30.078045 0 -54.46112 -24.383057 -54.46112 -54.46112z" fill-rule="evenodd"/><path stroke="#000000" stroke-width="1.0" stroke-linejoin="round" stroke-linecap="butt" d="m0.015748031 54.476868l0 0c0 -30.078045 24.383074 -54.46112 54.46112 -54.46112l1717.0935 0c14.44397 0 28.296387 5.7378516 38.509766 15.951293c10.213501 10.213442 15.951294 24.065842 15.951294 38.509827l0 547.07776c0 30.078064 -24.383057 54.46112 -54.46106 54.46112l-1717.0935 0c-30.078045 0 -54.46112 -24.383057 -54.46112 -54.46112z" fill-rule="evenodd"/><path fill="#000000" fill-opacity="0.0" d="m14.496063 -4.897638l1797.0078 0l0 665.7953l-1797.0078 0z" fill-rule="evenodd"/><path fill="#ffffff" d="m423.15384 329.3836q0 25.78125 -6.640625 49.609375q-6.640625 23.828125 -18.875 44.53125q-12.234375 20.703125 -29.171875 37.765625q-16.921875 17.046875 -37.75 29.296875q-20.828125 12.234375 -44.65625 18.875q-23.828125 6.640625 -49.609375 6.640625l-112.5 0l0 -373.4375l112.5 0q25.78125 0 49.609375 6.640625q23.828125 6.640625 44.65625 18.890625q20.828125 12.234375 37.75 29.296875q16.9375 17.046875 29.171875 37.75q12.234375 20.703125 18.875 44.53125q6.640625 23.828125 6.640625 49.609375zm-74.734375 0q0 -23.171875 -8.71875 -43.484375q-8.71875 -20.3125 -23.953125 -35.546875q-15.234375 -15.234375 -35.6875 -24.078125q-20.4375 -8.859375 -43.609375 -8.859375l-37.25 0l0 223.95312l37.25 0q23.171875 0 43.609375 -8.71875q20.453125 -8.734375 35.6875 -23.96875q15.234375 -15.234375 23.953125 -35.671875q8.71875 -20.453125 8.71875 -43.625zm198.96011 186.71875l-74.734344 0l0 -373.4375l74.734344 0l0 373.4375zm144.00903 -298.6875l0 149.46875l74.734375 0q15.375 0 28.90625 -5.859375q13.546875 -5.859375 23.703125 -16.015625q10.15625 -10.15625 16.015625 -23.828125q5.859375 -13.671875 5.859375 -29.03125q0 -15.375 -5.859375 -29.046875q-5.859375 -13.671875 -16.015625 -23.8125q-10.15625 -10.15625 -23.703125 -16.015625q-13.53125 -5.859375 -28.90625 -5.859375l-74.734375 0zm0 298.6875l-74.734375 0l0 -373.4375l149.46875 0q20.578125 0 39.578125 5.34375q19.015625 5.34375 35.546875 15.109375q16.546875 9.765625 30.21875 23.4375q13.671875 13.671875 23.4375 30.34375q9.765625 16.65625 15.09375 35.671875q5.34375 19.0 5.34375 39.578125q0 30.71875 -11.71875 57.9375q-11.71875 27.21875 -32.03125 47.53125q-20.3125 20.3125 -47.53125 32.03125q-27.203125 11.71875 -57.9375 11.71875l-74.734375 0l0 74.734375zm245.8352 -261.45312q0 -23.171875 8.84375 -43.484375q8.859375 -20.3125 24.09375 -35.546875q15.234375 -15.234375 35.546875 -24.09375q20.312561 -8.859375 43.484436 -8.859375l171.35938 0l0 74.75l-171.35938 0q-7.8125 0 -14.578125 2.859375q-6.765625 2.859375 -11.843811 7.9375q-5.078125 5.078125 -7.953125 11.859375q-2.859375 6.765625 -2.859375 14.578125q0 7.8125 2.859375 14.71875q2.875 6.890625 7.953125 11.96875q5.078186 5.078125 11.843811 7.953125q6.765625 2.859375 14.578125 2.859375l74.75 0q23.171875 0 43.609375 8.71875q20.453125 8.71875 35.671875 23.953125q15.234375 15.234375 23.953125 35.6875q8.734375 20.4375 8.734375 43.609375q0 23.1875 -8.734375 43.5q-8.71875 20.3125 -23.953125 35.546875q-15.21875 15.234375 -35.671875 24.09375q-20.4375 8.84375 -43.609375 8.84375l-165.89069 0l0 -74.734375l165.89069 0q7.8125 0 14.578125 -2.859375q6.765625 -2.875 11.84375 -7.953125q5.078125 -5.078125 7.9375 -11.84375q2.875 -6.78125 2.875 -14.59375q0 -7.8125 -2.875 -14.578125q-2.859375 -6.765625 -7.9375 -11.84375q-5.078125 -5.078125 -11.84375 -7.9375q-6.765625 -2.875 -14.578125 -2.875l-74.75 0q-23.171875 0 -43.484436 -8.84375q-20.3125 -8.859375 -35.546875 -24.09375q-15.234375 -15.234375 -24.09375 -35.671875q-8.84375 -20.453125 -8.84375 -43.625zm422.3875 261.45312l-74.734375 0l0 -373.4375l74.734375 0l0 373.4375zm144.00903 -298.6875l0 149.46875l74.734375 0q15.375 0 28.90625 -5.859375q13.546875 -5.859375 23.703125 -16.015625q10.15625 -10.15625 16.015625 -23.828125q5.859375 -13.671875 5.859375 -29.03125q0 -15.375 -5.859375 -29.046875q-5.859375 -13.671875 -16.015625 -23.8125q-10.15625 -10.15625 -23.703125 -16.015625q-13.53125 -5.859375 -28.90625 -5.859375l-74.734375 0zm0 298.6875l-74.734375 0l0 -373.4375l149.46875 0q20.578125 0 39.578125 5.34375q19.015625 5.34375 35.546875 15.109375q16.546875 9.765625 30.21875 23.4375q13.671875 13.671875 23.4375 30.34375q9.765625 16.65625 15.09375 35.671875q5.34375 19.0 5.34375 39.578125q0 30.71875 -11.71875 57.9375q-11.71875 27.21875 -32.03125 47.53125q-20.3125 20.3125 -47.53125 32.03125q-27.203125 11.71875 -57.9375 11.71875l-74.734375 0l0 74.734375z" fill-rule="nonzero"/></g></svg>